<?xml version="1.0" encoding="utf-8"?>
<!-- Generator: Adobe Illustrator 23.0.1, SVG Export Plug-In . SVG Version: 6.00 Build 0)  -->
<svg version="1.1" xmlns="http://www.w3.org/2000/svg" xmlns:xlink="http://www.w3.org/1999/xlink" x="0px" y="0px"
	 viewBox="0 0 141.73 141.73" style="enable-background:new 0 0 141.73 141.73;" xml:space="preserve">
<style type="text/css">
	.st0{display:none;fill:#939598;}
</style>
<g id="Layer_3">
</g>
<g id="Layer_6">
	<circle class="st0" cx="2313.9" cy="-1071.85" r="93.58"/>
	<polygon points="97.33,92.68 105.61,105.21 92.73,95.69 	"/>
	<g>
		<path d="M42.64,70.52c0-14.46,10.49-26.46,24.85-27.96V36c-8.48,0.88-16.65,4.91-22.4,11.24c-5.79,6.39-8.98,14.65-8.98,23.28
			c0,8.62,3.19,16.89,8.98,23.28c5.75,6.34,13.92,10.32,22.4,11.2v-6.57C53.13,96.93,42.64,84.98,42.64,70.52z"/>
		<path d="M53.01,87.94c4.08,4.17,9.39,6.78,14.48,7.91l2.21-3.57c-5.07-1.13-10.4-3.76-14.47-7.91L53.01,87.94z"/>
		<path d="M81.1,73.9l2.31-3.73c-4.09-4.12-8.52-7.21-13.83-8.84l-2.32,3.73C72.52,66.69,77.04,69.83,81.1,73.9z"/>
		<path d="M97.45,92.54L97.45,92.54c5-6.02,8-13.7,8-22.02c0-17.74-13.63-32.59-31.24-34.5v6.57c14.29,1.55,24.71,13.54,24.71,27.94
			c0,7.18-2.6,13.75-6.97,18.73l-14.86-8.9l3.5-5.64c-4.09-4.11-8.58-7.15-13.87-8.78L55.76,83.54c4.05,4.12,9.42,6.77,14.47,7.9
			l3.41-5.5l31.98,19.28L97.45,92.54z"/>
	</g>
</g>
</svg>
